<?xml version="1.0" encoding="utf-8"?>
<!-- Generator: Adobe Illustrator 27.8.1, SVG Export Plug-In . SVG Version: 6.00 Build 0)  -->
<svg version="1.1" id="Calque_1" xmlns="http://www.w3.org/2000/svg" xmlns:xlink="http://www.w3.org/1999/xlink" x="0px" y="0px"
     viewBox="0 0 170 30" style="enable-background:new 0 0 170 30;" xml:space="preserve">
<style type="text/css">
.st0{clip-path:url(#SVGID_00000103975593735568932310000016989831898477881769_);}
.st1{fill:#6E2DF3;}
.st2{fill:url(#SVGID_00000067959196104335877920000008946372386068961721_);}
.st3{fill:url(#SVGID_00000122687049826162750010000012102915825982687894_);}
.st4{display:none;fill:#6E2DF3;}
.st5{display:none;fill:url(#SVGID_00000176765742000965881230000004460529180944852888_);}
.st6{fill:url(#SVGID_00000131354934186300989620000008138036323230247346_);}
.st7{fill:#000000;}
</style>
    <g>
<defs>
<rect id="SVGID_1_" width="170" height="30"/>
</defs>
        <clipPath id="SVGID_00000108280107530394159730000011660700048840501684_">
<use xlink:href="#SVGID_1_"  style="overflow:visible;"/>
</clipPath>
        <g style="clip-path:url(#SVGID_00000108280107530394159730000011660700048840501684_);">
<path class="st1" d="M29.7,0h-9.1c-0.2,0-0.5,0.2-0.5,0.4l0,10.3c0,0.2-0.2,0.3-0.3,0.1L8.9,0.1C8.8,0,8.7,0,8.7,0H0.5
C0.2,0,0,0.2,0,0.4v8.2c0,0.1,0,0.2,0.1,0.2l21.1,21.1c0.1,0.1,0.1,0.1,0.2,0.1h8.2c0.2,0,0.5-0.2,0.5-0.5V0.4
C30.1,0.2,29.9,0,29.7,0z"/>

            <linearGradient id="SVGID_00000142171217190172416850000011990658153513670582_" gradientUnits="userSpaceOnUse" x1="-1.4812" y1="44.2451" x2="38.8958" y2="3.3274" gradientTransform="matrix(1 0 0 -1 0 32)">
<stop  offset="0" style="stop-color:#6E2DF3"/>
                <stop  offset="1" style="stop-color:#400AAE"/>
</linearGradient>
            <path style="fill:url(#SVGID_00000142171217190172416850000011990658153513670582_);" d="M29.7,0h-9.1c-0.2,0-0.5,0.2-0.5,0.4
l0,10.3c0,0.2-0.2,0.3-0.3,0.1L8.9,0.1C8.8,0,8.7,0,8.7,0H0.5C0.2,0,0,0.2,0,0.4v8.2c0,0.1,0,0.2,0.1,0.2l21.1,21.1
c0.1,0.1,0.1,0.1,0.2,0.1h8.2c0.2,0,0.5-0.2,0.5-0.5V0.4C30.1,0.2,29.9,0,29.7,0z"/>
            <path class="st1" d="M30.5,0h-9.4c-0.3,0-0.5,0.2-0.5,0.4l0,10.3c0,0.2-0.2,0.3-0.3,0.1L9.1,0.1C9.1,0,9,0,8.9,0H0.5
C0.2,0,0,0.2,0,0.4v8.2c0,0.1,0,0.2,0.1,0.2l21.8,21.1C21.9,30,22,30,22.1,30h8.5c0.3,0,0.5-0.2,0.5-0.5V0.4C31,0.2,30.8,0,30.5,0
z"/>

            <linearGradient id="SVGID_00000094599790848100017640000017748988705824768421_" gradientUnits="userSpaceOnUse" x1="-1.0216" y1="44.7276" x2="39.3224" y2="2.63" gradientTransform="matrix(1 0 0 -1 0 32)">
<stop  offset="0" style="stop-color:#6E2DF3"/>
                <stop  offset="1" style="stop-color:#400AAE"/>
</linearGradient>
            <path style="fill:url(#SVGID_00000094599790848100017640000017748988705824768421_);" d="M30.5,0h-9.4c-0.3,0-0.5,0.2-0.5,0.4
l0,10.3c0,0.2-0.2,0.3-0.3,0.1L9.1,0.1C9.1,0,9,0,8.9,0H0.5C0.2,0,0,0.2,0,0.4v8.2c0,0.1,0,0.2,0.1,0.2l21.8,21.1
C21.9,30,22,30,22.1,30h8.5c0.3,0,0.5-0.2,0.5-0.5V0.4C31,0.2,30.8,0,30.5,0z"/>
            <path class="st4" d="M9.3,20H0.4C0.2,20,0,20.2,0,20.4v9.1C0,29.8,0.2,30,0.4,30h8.8c0.2,0,0.4-0.2,0.4-0.4v-9.1
C9.7,20.2,9.5,20,9.3,20z"/>

            <linearGradient id="SVGID_00000041981398762393911210000016232110958470962867_" gradientUnits="userSpaceOnUse" x1="-2.4029" y1="14.1187" x2="11.0547" y2="0.9208" gradientTransform="matrix(1 0 0 -1 0 32)">
<stop  offset="0" style="stop-color:#6E2DF3"/>
                <stop  offset="1" style="stop-color:#400AAE"/>
</linearGradient>
            <path style="display:none;fill:url(#SVGID_00000041981398762393911210000016232110958470962867_);" d="M9.3,20H0.4
C0.2,20,0,20.2,0,20.4v9.1C0,29.8,0.2,30,0.4,30h8.8c0.2,0,0.4-0.2,0.4-0.4v-9.1C9.7,20.2,9.5,20,9.3,20z"/>
            <path class="st1" d="M9.9,20H0.5C0.2,20,0,20.2,0,20.4v9.1C0,29.8,0.2,30,0.5,30h9.4c0.3,0,0.5-0.2,0.5-0.4v-9.1
C10.4,20.2,10.1,20,9.9,20z"/>

            <linearGradient id="SVGID_00000132795620063362755120000001207177100451019187_" gradientUnits="userSpaceOnUse" x1="-2.0887" y1="14.5911" x2="11.3793" y2="0.5342" gradientTransform="matrix(1 0 0 -1 0 32)">
<stop  offset="0" style="stop-color:#6E2DF3"/>
                <stop  offset="1" style="stop-color:#400AAE"/>
</linearGradient>
            <path style="fill:url(#SVGID_00000132795620063362755120000001207177100451019187_);" d="M9.9,20H0.5C0.2,20,0,20.2,0,20.4v9.1
C0,29.8,0.2,30,0.5,30h9.4c0.3,0,0.5-0.2,0.5-0.4v-9.1C10.4,20.2,10.1,20,9.9,20z"/>
            <path class="st7" d="M46,7.5h1.9l7.4,11.1l-0.1-1V7.5h2v14.4h-1.9l-7.4-11.1l0.1,1v10.1h-2V7.5z"/>
            <path class="st7" d="M60.2,7.5h9.7v1.8h-7.7v4.7h6.6v1.5h-6.6v4.7h7.7v1.8h-9.7V7.5z"/>
            <path class="st7" d="M72.9,7.5H75l3.8,10.9l0.2,1l0.2-1L83,7.5h2.2l-5,14.4h-2.2L72.9,7.5z"/>
            <path class="st7" d="M88.1,7.5h9.7v1.8h-7.7v4.7h6.6v1.5h-6.6v4.7h7.7v1.8h-9.7V7.5z"/>
            <path class="st7" d="M107.2,7.5c1.5,0,2.7,0.4,3.4,1.1c0.8,0.7,1.2,1.8,1.2,3.2c0,1.1-0.3,2-0.8,2.6c-0.5,0.6-1.3,1.1-2.3,1.3
l3.4,6.2h-2.3l-3.2-5.9h-3.8v5.9h-2V7.5H107.2z M106.9,14.3c0.8,0,1.5-0.2,2-0.7c0.5-0.4,0.8-1.1,0.8-1.9c0-0.8-0.2-1.4-0.7-1.9
c-0.5-0.4-1.2-0.6-2.1-0.6h-4.2v5H106.9z"/>
            <path class="st7" d="M115.1,7.5h2v6.4h7.3V7.5h2v14.4h-2v-6.3h-7.3v6.3h-2V7.5z"/>
            <path class="st7" d="M141.7,21.9h-2.2l-3.8-10.9l-0.2-1l-0.2,1l-3.8,10.9h-2.2l5-14.4h2.2L141.7,21.9z"/>
            <path class="st7" d="M150.6,22.5c-1.2,0-2.2-0.2-3.1-0.6c-0.9-0.4-1.6-1-2.1-1.8c-0.5-0.8-0.7-1.7-0.7-2.8v-4.6
c0-1.1,0.2-2,0.7-2.8c0.5-0.8,1.2-1.4,2.1-1.8c0.9-0.4,1.9-0.6,3.1-0.6c1.1,0,2.1,0.2,3,0.5c0.8,0.4,1.5,0.9,2,1.5
c0.5,0.7,0.8,1.4,0.9,2.4h-2c-0.2-0.8-0.6-1.4-1.2-1.9c-0.7-0.5-1.5-0.7-2.6-0.7c-0.7,0-1.4,0.1-2,0.4c-0.6,0.3-1.1,0.7-1.4,1.2
c-0.3,0.5-0.5,1.1-0.5,1.8v4.6c0,0.7,0.2,1.3,0.5,1.8c0.3,0.5,0.8,0.9,1.4,1.2c0.6,0.3,1.3,0.4,2,0.4c1.1,0,2-0.2,2.6-0.7
c0.7-0.5,1.1-1.2,1.2-2.1h2c-0.1,1.4-0.7,2.6-1.7,3.4C153.7,22.1,152.3,22.5,150.6,22.5z"/>
            <path class="st7" d="M159.4,7.5h2v6.3l5.8-6.3h2.5l-6.6,7.2l6.8,7.3h-2.7l-5.9-6.3v6.3h-2V7.5z"/>
</g>
</g>
</svg>
